<svg xmlns="http://www.w3.org/2000/svg" viewBox="0 0 32 32">
  <!-- Cable-stayed bridge (Mario Cuomo / Tappan Zee) -->

  <!-- Sky: warm sunset gradient via layers -->
  <rect width="32" height="32" fill="#f97316" rx="4"/>
  <rect x="0" y="0" width="32" height="32" fill="url(#sky)" rx="4"/>
  <defs>
    <linearGradient id="sky" x1="0" y1="0" x2="0" y2="1">
      <stop offset="0%" stop-color="#fb923c"/>
      <stop offset="100%" stop-color="#fde68a"/>
    </linearGradient>
  </defs>

  <!-- Water -->
  <rect x="0" y="22" width="32" height="10" rx="0" fill="#1d4ed8"/>
  <!-- Water shimmer -->
  <path d="M0 25 Q4 23.5 8 25 Q12 26.5 16 25 Q20 23.5 24 25 Q28 26.5 32 25" stroke="#60a5fa" stroke-width="1" fill="none" opacity="0.6"/>
  <path d="M0 27.5 Q4 26 8 27.5 Q12 29 16 27.5 Q20 26 24 27.5 Q28 29 32 27.5" stroke="#93c5fd" stroke-width="0.7" fill="none" opacity="0.4"/>

  <!-- Bridge deck -->
  <rect x="1" y="20" width="30" height="2" fill="#fff" rx="0.5"/>

  <!-- Left tower -->
  <rect x="9.5" y="7" width="2" height="15" fill="#fff" rx="0.5"/>

  <!-- Right tower -->
  <rect x="20.5" y="7" width="2" height="15" fill="#fff" rx="0.5"/>

  <!-- Left tower cables (fan) -->
  <line x1="10.5" y1="7" x2="2" y2="20" stroke="#fff" stroke-width="0.6" opacity="0.9"/>
  <line x1="10.5" y1="7" x2="6"  y2="20" stroke="#fff" stroke-width="0.6" opacity="0.9"/>
  <line x1="10.5" y1="7" x2="10" y2="20" stroke="#fff" stroke-width="0.6" opacity="0.9"/>
  <line x1="10.5" y1="7" x2="14" y2="20" stroke="#fff" stroke-width="0.6" opacity="0.9"/>

  <!-- Right tower cables (fan) -->
  <line x1="21.5" y1="7" x2="18" y2="20" stroke="#fff" stroke-width="0.6" opacity="0.9"/>
  <line x1="21.5" y1="7" x2="22" y2="20" stroke="#fff" stroke-width="0.6" opacity="0.9"/>
  <line x1="21.5" y1="7" x2="26" y2="20" stroke="#fff" stroke-width="0.6" opacity="0.9"/>
  <line x1="21.5" y1="7" x2="30" y2="20" stroke="#fff" stroke-width="0.6" opacity="0.9"/>
</svg>
