<svg xmlns="http://www.w3.org/2000/svg" viewBox="0 0 32 32">
  <defs>
    <!-- Sky: deep indigo at zenith → crimson → amber → golden yellow at horizon -->
    <linearGradient id="sky" x1="0" y1="0" x2="0" y2="1">
      <stop offset="0%"   stop-color="#1a0a2e"/>
      <stop offset="20%"  stop-color="#6b1a1a"/>
      <stop offset="50%"  stop-color="#c2410c"/>
      <stop offset="78%"  stop-color="#f97316"/>
      <stop offset="100%" stop-color="#fbbf24"/>
    </linearGradient>

    <!-- Atmospheric halo: wide radial glow at sun position -->
    <radialGradient id="halo" cx="50%" cy="63%" r="55%">
      <stop offset="0%"   stop-color="#fef3c7" stop-opacity="0.75"/>
      <stop offset="35%"  stop-color="#fb923c" stop-opacity="0.35"/>
      <stop offset="70%"  stop-color="#c2410c" stop-opacity="0.10"/>
      <stop offset="100%" stop-color="#c2410c" stop-opacity="0"/>
    </radialGradient>

    <!-- Water surface: dark navy sides → warm gold at center (sun column) -->
    <linearGradient id="waterH" x1="0" y1="0" x2="1" y2="0">
      <stop offset="0%"   stop-color="#0a1628"/>
      <stop offset="42%"  stop-color="#0f2744"/>
      <stop offset="50%"  stop-color="#7c4a0a" stop-opacity="0.6"/>
      <stop offset="58%"  stop-color="#0f2744"/>
      <stop offset="100%" stop-color="#0a1628"/>
    </linearGradient>

    <!-- Water depth: lighter at surface, darker below -->
    <linearGradient id="waterV" x1="0" y1="0" x2="0" y2="1">
      <stop offset="0%"   stop-color="#1e3a5f"/>
      <stop offset="100%" stop-color="#060e1c"/>
    </linearGradient>

    <!-- Sun reflection column in water -->
    <linearGradient id="sunCol" x1="0" y1="0" x2="0" y2="1">
      <stop offset="0%"   stop-color="#fde68a" stop-opacity="0.7"/>
      <stop offset="60%"  stop-color="#f97316" stop-opacity="0.2"/>
      <stop offset="100%" stop-color="#f97316" stop-opacity="0"/>
    </linearGradient>

    <!-- Soft blur for sun halo and reflections -->
    <filter id="glow" x="-80%" y="-80%" width="260%" height="260%">
      <feGaussianBlur stdDeviation="1.8"/>
    </filter>
    <filter id="blur-xs" x="-30%" y="-10%" width="160%" height="120%">
      <feGaussianBlur stdDeviation="0.45"/>
    </filter>
  </defs>

  <!-- ── SKY ── -->
  <rect width="32" height="32" fill="url(#sky)" rx="4"/>

  <!-- Wide atmospheric halo around sun -->
  <rect width="32" height="32" fill="url(#halo)" rx="4"/>

  <!-- Cloud streaks (thin, backlit) -->
  <path d="M1 7 Q7 6 13 7.5 Q19 8.5 26 7" stroke="#c2410c" stroke-width="0.55" fill="none" opacity="0.45"/>
  <path d="M5 10.5 Q11 9.5 18 10.5 Q23 11 29 10" stroke="#ea580c" stroke-width="0.45" fill="none" opacity="0.35"/>
  <path d="M2 13 Q9 12.5 15 13.5 Q21 14 28 13" stroke="#f97316" stroke-width="0.35" fill="none" opacity="0.25"/>

  <!-- Sun: blurred halo then crisp disk -->
  <circle cx="16" cy="20" r="5"   fill="#fef3c7" filter="url(#glow)" opacity="0.85"/>
  <circle cx="16" cy="20" r="3"   fill="#fefce8"/>
  <circle cx="16" cy="20" r="1.8" fill="#ffffff"/>

  <!-- Thin horizon glow band (where sky meets water) -->
  <rect x="0" y="19.5" width="32" height="1.5" fill="#fde68a" opacity="0.2"/>

  <!-- ── WATER ── -->
  <rect x="0" y="21" width="32" height="11" fill="url(#waterV)"/>
  <rect x="0" y="21" width="32" height="11" fill="url(#waterH)" opacity="0.85"/>

  <!-- Sun column reflection -->
  <rect x="12.5" y="21" width="7" height="11" fill="url(#sunCol)"/>

  <!-- Water ripple highlights (warm near center, cool at edges) -->
  <path d="M11 22.5 Q13.5 21.5 16 22.5 Q18.5 23.5 21 22.5" stroke="#fde68a" stroke-width="0.5" fill="none" opacity="0.45"/>
  <path d="M8 25 Q12 23.5 16 25 Q20 26.5 24 25"            stroke="#fbbf24" stroke-width="0.4" fill="none" opacity="0.25"/>
  <path d="M4 27.5 Q9 26 16 27.5 Q23 29 28 27.5"           stroke="#3b82f6" stroke-width="0.4" fill="none" opacity="0.2"/>
  <path d="M2 30 Q8 28.5 16 30 Q24 31.5 30 30"             stroke="#1d4ed8" stroke-width="0.35" fill="none" opacity="0.15"/>

  <!-- ── BRIDGE ── -->

  <!-- Bridge deck: dark base (shadow underside) then warm lit top surface -->
  <rect x="1" y="19.2" width="30" height="2"   fill="#3d2008" rx="0.2" opacity="0.5"/>
  <rect x="1" y="19.2" width="30" height="1.4" fill="#d4a96a" rx="0.2"/>
  <line x1="1" y1="19.2" x2="31" y2="19.2" stroke="#fde68a" stroke-width="0.3" opacity="0.6"/>

  <!-- LEFT TOWER — H-frame (two legs, crossbeam) -->
  <!-- Shadow leg (right, facing away from sun) -->
  <rect x="10.2" y="6.5" width="1.1" height="13" fill="#8a6840" rx="0.2"/>
  <!-- Lit leg (left, sun-facing) -->
  <rect x="8.8"  y="6.5" width="1.1" height="13" fill="#e8c98a" rx="0.2"/>
  <!-- Lit edge gleam -->
  <rect x="8.8"  y="6.5" width="0.3" height="13" fill="#fff5d6" rx="0.1" opacity="0.7"/>
  <!-- Crossbeam -->
  <rect x="8.8"  y="10.5" width="2.5" height="0.9" fill="#c4a462" rx="0.15"/>

  <!-- RIGHT TOWER — H-frame -->
  <rect x="20.7" y="6.5" width="1.1" height="13" fill="#e8c98a" rx="0.2"/>
  <rect x="22.1" y="6.5" width="1.1" height="13" fill="#8a6840" rx="0.2"/>
  <rect x="20.7" y="6.5" width="0.3" height="13" fill="#fff5d6" rx="0.1" opacity="0.7"/>
  <rect x="20.7" y="10.5" width="2.5" height="0.9" fill="#c4a462" rx="0.15"/>

  <!-- LEFT TOWER CABLES — fan pattern, warm golden tint -->
  <line x1="9.4"  y1="7"  x2="2"   y2="19.2" stroke="#e8c98a" stroke-width="0.5" opacity="0.8"/>
  <line x1="9.4"  y1="7"  x2="5"   y2="19.2" stroke="#e8c98a" stroke-width="0.5" opacity="0.85"/>
  <line x1="9.4"  y1="7"  x2="8"   y2="19.2" stroke="#e8c98a" stroke-width="0.5" opacity="0.9"/>
  <line x1="9.4"  y1="7"  x2="12"  y2="19.2" stroke="#e8d5a0" stroke-width="0.45" opacity="0.8"/>
  <line x1="9.4"  y1="7"  x2="15"  y2="19.2" stroke="#e8d5a0" stroke-width="0.4" opacity="0.65"/>

  <!-- RIGHT TOWER CABLES -->
  <line x1="21.6" y1="7"  x2="17"  y2="19.2" stroke="#e8d5a0" stroke-width="0.4" opacity="0.65"/>
  <line x1="21.6" y1="7"  x2="20"  y2="19.2" stroke="#e8d5a0" stroke-width="0.45" opacity="0.8"/>
  <line x1="21.6" y1="7"  x2="24"  y2="19.2" stroke="#e8c98a" stroke-width="0.5" opacity="0.9"/>
  <line x1="21.6" y1="7"  x2="27"  y2="19.2" stroke="#e8c98a" stroke-width="0.5" opacity="0.85"/>
  <line x1="21.6" y1="7"  x2="30"  y2="19.2" stroke="#e8c98a" stroke-width="0.5" opacity="0.8"/>

  <!-- ── REFLECTIONS IN WATER ── (blurred, distorted) -->
  <!-- Tower reflections -->
  <rect x="8.8"  y="21.2" width="1.1" height="5.5" fill="#c4a462" rx="0.2" opacity="0.25" filter="url(#blur-xs)"/>
  <rect x="10.2" y="21.2" width="1.1" height="5.5" fill="#5a4020" rx="0.2" opacity="0.15" filter="url(#blur-xs)"/>
  <rect x="20.7" y="21.2" width="1.1" height="5.5" fill="#c4a462" rx="0.2" opacity="0.25" filter="url(#blur-xs)"/>
  <rect x="22.1" y="21.2" width="1.1" height="5.5" fill="#5a4020" rx="0.2" opacity="0.15" filter="url(#blur-xs)"/>
  <!-- Cable reflections (very faint, wavy) -->
  <line x1="9.4" y1="21.2" x2="3"  y2="26" stroke="#c4a462" stroke-width="0.4" opacity="0.18" filter="url(#blur-xs)"/>
  <line x1="9.4" y1="21.2" x2="7"  y2="26" stroke="#c4a462" stroke-width="0.4" opacity="0.18" filter="url(#blur-xs)"/>
  <line x1="21.6" y1="21.2" x2="25" y2="26" stroke="#c4a462" stroke-width="0.4" opacity="0.18" filter="url(#blur-xs)"/>
  <line x1="21.6" y1="21.2" x2="29" y2="26" stroke="#c4a462" stroke-width="0.4" opacity="0.18" filter="url(#blur-xs)"/>
</svg>
