<svg xmlns="http://www.w3.org/2000/svg" viewBox="0 0 32 32">
  <!-- Hudson River sunset: landscape layers -->

  <!-- Sky -->
  <rect width="32" height="32" fill="#f97316" rx="4"/>

  <!-- Horizon glow -->
  <ellipse cx="16" cy="18" rx="14" ry="6" fill="#fbbf24" opacity="0.5"/>

  <!-- Sun disk -->
  <circle cx="16" cy="18" r="4.5" fill="#fef08a"/>

  <!-- Hills / Palisades silhouette -->
  <path d="M0 20 Q4 14 8 17 Q11 13 14 16 Q16 14 18 16 Q22 12 26 17 Q29 15 32 18 L32 20Z" fill="#92400e" opacity="0.85"/>

  <!-- River -->
  <rect x="0" y="20" width="32" height="12" fill="#1e40af" rx="0"/>

  <!-- Sun reflection on water -->
  <ellipse cx="16" cy="23" rx="4" ry="1.2" fill="#fde68a" opacity="0.5"/>

  <!-- Water ripples -->
  <path d="M6 25 Q10 23.5 14 25 Q18 26.5 22 25 Q26 23.5 30 25" stroke="#60a5fa" stroke-width="0.8" fill="none" opacity="0.5"/>
  <path d="M4 28 Q9 26.5 14 28 Q19 29.5 24 28 Q28 26.5 31 28" stroke="#93c5fd" stroke-width="0.6" fill="none" opacity="0.35"/>
</svg>
